HIERARCHY
ROOT Hips
{
	OFFSET 0.00000 0.00000 0.00000
	CHANNELS 6 Xposition Yposition Zposition Zrotation Yrotation Xrotation 
	JOINT LHipJoint
	{
		OFFSET 0 0 0
		CHANNELS 3 Zrotation Yrotation Xrotation
		JOINT LeftHip
		{
			OFFSET 1.38280 -1.96574 0.54427
			CHANNELS 3 Zrotation Yrotation Xrotation
			JOINT LeftKnee
			{
				OFFSET 2.72096 -7.47578 0.00000
				CHANNELS 3 Zrotation Yrotation Xrotation
				JOINT LeftAnkle
				{
					OFFSET 2.73041 -7.50176 0.00000
					CHANNELS 3 Zrotation Yrotation Xrotation
					JOINT LeftToe
					{
						OFFSET 0.16150 -0.44371 2.18031
						CHANNELS 3 Zrotation Yrotation Xrotation
						End Site
						{
							OFFSET 0.00000 -0.00000 1.12127
						}
					}
				}
			}
		}
	}
	JOINT RHipJoint
	{
		OFFSET 0 0 0
		CHANNELS 3 Zrotation Yrotation Xrotation
		JOINT RightHip
		{
			OFFSET -1.57224 -1.96575 0.54427
			CHANNELS 3 Zrotation Yrotation Xrotation
			JOINT RightKnee
			{
				OFFSET -2.95935 -8.13076 0.00000
				CHANNELS 3 Zrotation Yrotation Xrotation
				JOINT RightAnkle
				{
					OFFSET -2.52345 -6.93311 0.00000
					CHANNELS 3 Zrotation Yrotation Xrotation
					JOINT RightToe
					{
						OFFSET -0.04475 -0.10171 1.86688
						CHANNELS 3 Zrotation Yrotation Xrotation
						End Site
						{
							OFFSET -0.00000 -0.00000 0.95157
						}
					}
				}
			}
		}
	}
	JOINT lowerback
	{
		OFFSET 0 0 0
		CHANNELS 3 Zrotation Yrotation Xrotation
		JOINT Chest
		{
			OFFSET 0.00669 2.07367 0.09104
			CHANNELS 3 Zrotation Yrotation Xrotation
			JOINT Chest2
			{
				OFFSET -0.00664 2.06198 -0.04732
				CHANNELS 3 Zrotation Yrotation Xrotation
				JOINT lowerneck
				{
					OFFSET 0 0 0
					CHANNELS 3 Zrotation Yrotation Xrotation
					JOINT Neck
					{
						OFFSET -0.00021 1.49948 0.16345
						CHANNELS 3 Zrotation Yrotation Xrotation
						JOINT Head
						{
							OFFSET 0.06080 1.50567 -0.26702
							CHANNELS 3 Zrotation Yrotation Xrotation
							End Site
							{
								OFFSET 0.01726 1.56470 -0.11854
							}
						}
					}
				}
				JOINT LeftCollar
				{
					OFFSET 0 0 0
					CHANNELS 3 Zrotation Yrotation Xrotation
					JOINT LeftShoulder
					{
						OFFSET 3.14993 0.82932 -0.22488
CHANNELS 3 Zrotation Xrotation Yrotation
						JOINT LeftElbow
						{
OFFSET 0 -5.682360 -0.000000
CHANNELS 3 Zrotation Xrotation Yrotation
							JOINT LeftWrist
							{
OFFSET 0 -3.171120 0.000000
CHANNELS 3 Zrotation Xrotation Yrotation
								JOINT lhand
								{
									OFFSET 0 0 0
CHANNELS 3 Zrotation Xrotation Yrotation
									JOINT LFingers
									{
OFFSET 0 -0.632690 0.000000
CHANNELS 3 Zrotation Xrotation Yrotation
										End Site
										{
OFFSET 0 -0.510090 0.000000
										}
									}
								}
								JOINT LThumb
								{
OFFSET 0 0.000000 0.000000
CHANNELS 3 Zrotation Xrotation Yrotation
									End Site
									{
OFFSET 0 -0.517880 0.517880
									}
								}
							}
						}
					}
				}
				JOINT RightCollar
				{
					OFFSET 0 0 0
					CHANNELS 3 Zrotation Yrotation Xrotation
					JOINT RightShoulder
					{
						OFFSET -3.10571 0.91279 -0.33334
CHANNELS 3 Zrotation Xrotation Yrotation
						JOINT RightElbow
						{
OFFSET 0 -5.871200 -0.000000
CHANNELS 3 Zrotation Xrotation Yrotation
							JOINT RightWrist
							{
OFFSET 0 -3.375890 0.000000
CHANNELS 3 Zrotation Xrotation Yrotation
								JOINT rhand
								{
									OFFSET 0 0 0
CHANNELS 3 Zrotation Xrotation Yrotation
									JOINT RFingers
									{
OFFSET 0 -0.603260 0.000000
CHANNELS 3 Zrotation Xrotation Yrotation
										End Site
										{
OFFSET 0 -0.486360 0.000000
										}
									}
								}
								JOINT RThumb
								{
OFFSET 0 0.000000 0.000000
CHANNELS 3 Zrotation Xrotation Yrotation
									End Site
									{
OFFSET 0 -0.493790 0.493790
									}
								}
							}
						}
					}
				}
			}
		}
	}
}
MOTION
Frames: 11
Frame Time: 0.008333333333333333
2.904761 18.437400 13.424833 -680.655322 89.074087 1127.988898 0.000000 0.000000 0.000000 -22.911923 -5.586273 -20.852394 2.345597 9.551570 27.536410 1.056789 1.413490 -19.981010 0.543382 -4.722729 -13.119405 0.000000 0.000000 0.000000 7.205312 18.222190 -20.357398 -2.419698 -9.689798 27.978528 -0.040947 2.482894 -3.736509 -2.701963 10.173711 -29.562913 -3.819613 -1.178106 -10.260928 2.079015 -1.226142 2.559118 4.162438 -0.856420 8.639133 -1.579613 0.684612 -19.793833 -1.790289 1.894148 18.564466 -0.096503 0.594149 9.105661 0.000000 0.000000 0.000000 9.727739 -17.619022 -44.276608 22.490638 -33.527087 6.854910 12.917596 -8.780830 -31.369604 0.000000 0.000000 0.000000 -7.125000 0.000000 0.000000 -21.951008 60.651449 8.615708 0.000000 0.000000 0.000000 -3.456439 0.673075 33.749499 -43.898472 -50.217248 -21.388904 -25.313047 -7.330107 -34.029639 0.000000 0.000000 0.000000 7.125000 0.000000 0.000000 3.992917 -6.699676 4.441724
3.486531 18.401809 13.721374 -624.624212 88.432680 1182.759783 0.000000 0.000000 0.000000 -23.269180 -4.241975 -17.532244 2.323731 9.510133 27.404545 1.227190 -0.398280 -20.823224 0.631325 -5.083692 -14.147505 0.000000 0.000000 0.000000 5.058330 22.957888 -19.376837 -1.554161 -7.867964 22.313788 -0.007661 -0.159683 1.612621 -1.399224 -7.482581 21.153330 -5.265630 -3.019568 -9.201858 2.494320 -3.578828 3.120158 5.026516 -2.114571 9.016378 -0.920479 2.077461 -20.036655 -2.761009 3.851584 18.678054 -0.270192 1.442334 9.227819 0.000000 0.000000 0.000000 11.809090 -24.094512 -48.937229 24.095675 -35.265271 7.761771 11.442482 -9.865626 -33.273116 0.000000 0.000000 0.000000 -7.125000 0.000000 0.000000 -25.208848 62.011798 10.802142 0.000000 0.000000 0.000000 -10.803928 3.806941 24.977610 -48.740341 -52.474391 -25.171772 -25.155932 -4.503246 -37.959208 0.000000 0.000000 0.000000 7.125000 0.000000 0.000000 4.846383 -10.648782 5.676910
3.956059 18.379875 14.076968 -706.114479 85.933744 1099.984023 0.000000 0.000000 0.000000 -22.004689 -3.873849 -13.753697 2.308167 9.480423 27.310125 1.749109 1.832689 -25.711715 0.803624 -5.720810 -15.976534 0.000000 0.000000 0.000000 8.411100 21.736986 -18.653361 -1.835943 -8.515602 24.291564 -0.086375 2.576485 7.116241 -1.897081 -8.648300 24.701203 -4.767314 -4.869708 -8.322736 3.383687 -6.227231 3.475450 5.252312 -3.419027 9.305706 2.190697 5.810736 -19.045688 -6.472213 9.132317 20.035637 -1.310819 3.704359 9.935569 0.000000 0.000000 0.000000 17.469606 -25.545833 -51.305211 24.845545 -36.045691 8.198862 9.424404 -11.526674 -32.080212 0.000000 0.000000 0.000000 -7.125000 0.000000 0.000000 -26.207048 60.461699 10.293091 0.000000 0.000000 0.000000 -30.275303 -1.002516 20.408591 -56.144881 -55.191572 -31.154013 -28.276822 -4.282038 -40.176316 0.000000 0.000000 0.000000 7.125000 0.000000 0.000000 3.754598 -13.732143 4.547015
4.288480 18.362339 14.332010 -717.587204 76.631953 1088.410067 0.000000 0.000000 0.000000 -21.903389 -0.858243 -11.998387 2.207667 9.285872 26.693741 2.497279 4.454163 -31.685629 0.611405 -5.004519 -13.921491 0.000000 0.000000 0.000000 10.376581 23.947952 -19.391320 -1.957732 -8.777491 25.101769 -0.464856 3.256906 14.482721 -2.034049 -8.936628 25.597318 -4.257742 -5.646940 -7.432061 3.827608 -7.391738 3.669314 5.293390 -3.976529 9.158796 6.393030 9.884392 -16.790198 -9.896160 14.734725 20.658828 -2.341171 6.270169 10.656889 0.000000 0.000000 0.000000 25.724869 -22.154456 -53.258675 24.828615 -36.028330 8.188888 9.517142 -11.712359 -30.538679 0.000000 0.000000 0.000000 -7.125000 0.000000 0.000000 -24.796304 59.108538 8.887863 0.000000 0.000000 0.000000 -60.423472 -11.391382 20.042256 -63.211206 -57.106336 -37.025650 -29.765677 -5.887875 -41.028085 0.000000 0.000000 0.000000 7.125000 0.000000 0.000000 3.230284 -15.026734 3.962581
4.529464 18.319806 14.532885 -719.513297 66.916586 1087.764257 0.000000 0.000000 0.000000 -22.331085 2.838648 -12.631865 2.152482 9.176684 26.349566 3.445603 5.116059 -37.114332 0.318588 -3.627282 -10.030479 0.000000 0.000000 0.000000 11.255500 27.230243 -21.817411 -2.174940 -9.221278 26.489979 -1.022577 3.918125 20.895737 -1.988435 -8.841949 25.302061 -3.861788 -6.330674 -7.273858 3.739776 -8.357926 3.815353 4.810011 -4.426123 9.285386 9.139333 12.937238 -13.534095 -11.794355 19.054697 20.294059 -2.808519 8.385891 10.820562 0.000000 0.000000 0.000000 34.940576 -11.711408 -60.538943 28.086903 -39.195427 10.178783 14.095606 -13.972311 -30.900585 0.000000 0.000000 0.000000 -7.125000 0.000000 0.000000 -20.322538 60.498501 7.869607 0.000000 0.000000 0.000000 -91.316596 -16.471305 18.226298 -76.871231 -59.338192 -48.655484 -30.784941 -8.733257 -42.139127 0.000000 0.000000 0.000000 7.125000 0.000000 0.000000 3.032809 -16.448806 3.771899
4.799437 18.239404 14.772619 -719.834015 59.777906 1088.201336 0.000000 0.000000 0.000000 -22.861540 7.314414 -13.490163 2.240070 9.349114 26.893595 4.275974 3.219409 -40.353184 0.155512 -2.540313 -7.001492 0.000000 0.000000 0.000000 12.146813 29.714442 -23.530390 -2.656873 -10.117623 29.358460 -1.263399 6.344679 24.392678 -1.748856 -8.322047 23.696645 -3.080783 -6.953922 -6.983448 3.058530 -9.233336 3.986429 3.526760 -4.780208 9.156007 10.584449 15.189855 -9.500671 -13.417904 22.764854 20.307869 -3.133178 10.219987 10.920200 0.000000 0.000000 0.000000 32.387061 10.976793 -62.343266 41.223515 -48.778134 19.354639 12.959524 -26.582177 -33.238663 0.000000 0.000000 0.000000 -7.125000 0.000000 0.000000 -23.562064 62.363583 10.247131 0.000000 0.000000 0.000000 -110.058264 -10.588207 9.019804 -92.707407 -59.972135 -62.344510 -30.111089 -11.434291 -41.225021 0.000000 0.000000 0.000000 7.125000 0.000000 0.000000 3.112132 -15.329132 3.828897
5.122827 18.255414 15.014857 -720.946748 67.631972 1088.845492 0.000000 0.000000 0.000000 -20.531035 7.509148 -14.600528 2.198979 9.268789 26.639746 3.108127 1.140835 -33.819741 0.623543 -5.052856 -14.059437 0.000000 0.000000 0.000000 12.751489 25.900820 -24.484249 -2.968047 -10.643126 31.085420 -0.534241 8.523376 19.451104 -1.422820 -7.542957 21.334286 -1.111087 -6.616218 -7.924840 2.320772 -8.937928 4.825201 1.583495 -4.473809 10.145219 9.981057 13.167966 -9.673270 -12.933834 20.102723 21.755232 -3.375229 8.959726 10.988290 0.000000 0.000000 0.000000 8.604175 25.126626 -39.383630 45.590776 -51.054628 22.697328 10.192291 -26.853589 -31.329916 0.000000 0.000000 0.000000 -7.125000 0.000000 0.000000 -24.761272 59.973105 9.392101 0.000000 0.000000 0.000000 -91.459646 -2.204463 -29.683539 -110.016573 -58.430202 -77.243502 -41.635143 -41.690783 -41.095695 0.000000 0.000000 0.000000 7.125000 0.000000 0.000000 -2.519196 -19.387954 -3.215248
5.175009 18.379232 15.199717 -892.327770 77.738475 922.319733 0.000000 0.000000 0.000000 -11.383494 -10.130189 -20.961788 2.614955 10.043958 29.119338 1.104766 -6.909749 -18.766614 1.454674 -7.620522 -21.568769 0.000000 0.000000 0.000000 15.505875 11.605740 -26.900557 -2.600932 -10.018924 29.038232 0.204307 8.010673 2.541759 -2.639600 -10.087453 29.260411 1.193872 -5.933187 -8.803100 7.137189 -8.361261 1.185359 5.622230 -4.159857 7.114140 2.822095 2.408095 -9.584719 -10.997687 6.979617 28.232477 -3.577566 2.578961 11.213110 0.000000 0.000000 0.000000 -1.516755 19.131629 -38.564680 36.670576 -45.967134 16.003284 19.166823 -18.029557 -31.177813 0.000000 0.000000 0.000000 -7.125000 0.000000 0.000000 -15.006895 62.004501 6.284169 0.000000 0.000000 0.000000 -74.728977 -10.381669 -95.973440 -116.840827 -57.094356 -83.018004 -64.485933 -83.319450 -35.785605 0.000000 0.000000 0.000000 7.125000 0.000000 0.000000 -15.639759 -27.493673 -21.621712
4.920002 18.498623 15.335923 -894.385240 74.053776 917.808648 0.000000 0.000000 0.000000 -11.448256 -6.011359 -22.612373 2.454658 9.754617 28.186021 1.398671 1.295079 -22.852525 1.278975 -7.165130 -20.206206 0.000000 0.000000 0.000000 15.701249 14.801069 -20.967367 -1.976355 -8.816606 25.223306 -0.015853 6.580119 -4.999989 -3.148530 -10.931612 32.049669 3.557762 2.507697 -7.914227 4.694114 2.827105 2.073807 3.324147 1.487962 6.560923 -3.509976 -7.025514 -8.528545 -3.056992 -7.269110 28.858708 -1.256076 -3.613845 10.685783 0.000000 0.000000 0.000000 8.651018 5.243217 -53.120422 34.376319 -44.361424 14.375610 4.397090 -16.214880 -34.120668 0.000000 0.000000 0.000000 -7.125000 0.000000 0.000000 -33.283912 61.002218 13.843608 0.000000 0.000000 0.000000 -41.780487 -33.865365 -5.125571 -33.344857 -43.585762 -13.661929 -19.192179 -13.394768 -14.560042 0.000000 0.000000 0.000000 7.125000 0.000000 0.000000 5.644967 14.655487 4.057501
4.821967 18.516359 15.564894 -898.702073 59.558636 914.536130 0.000000 0.000000 0.000000 -9.345520 -16.242958 -22.703938 1.981782 8.828003 25.258728 0.780106 1.613584 -17.342567 1.340539 -7.330120 -20.697517 0.000000 0.000000 0.000000 15.993662 11.298026 -21.801550 -2.122388 -9.116477 26.160275 -0.550575 8.053385 -13.524891 -3.446493 -11.385033 33.589581 3.565233 4.607378 -6.672122 4.374669 5.762387 2.025990 3.250590 2.953542 5.749384 -5.674948 -12.232803 -10.439108 2.935261 -15.965678 23.767789 0.049066 -7.322510 9.967739 0.000000 0.000000 0.000000 9.713379 -4.721470 -59.380425 35.650059 -45.270178 15.273565 10.327819 -13.910438 -32.635918 0.000000 0.000000 0.000000 -7.125000 0.000000 0.000000 -25.777508 61.170748 10.547787 0.000000 0.000000 0.000000 9.063719 -46.664549 61.123807 -39.861385 -47.987057 -18.336330 -11.696156 -10.465840 -17.564348 0.000000 0.000000 0.000000 7.125000 0.000000 0.000000 10.711961 12.298164 8.335075
4.869368 18.557569 15.501267 -899.953102 45.892593 911.362998 0.000000 0.000000 0.000000 -9.814534 -20.021112 -20.487337 1.589021 7.951687 22.567404 0.303982 -2.908630 -9.818259 1.217414 -6.996648 -19.706280 0.000000 0.000000 0.000000 17.291156 7.792733 -17.000112 -1.954209 -8.769990 25.078371 -1.979854 10.410931 -25.287870 -3.610465 -11.623171 34.411484 2.469447 3.515897 -7.009032 3.812502 4.362104 2.665690 3.169567 2.217280 6.609147 -6.132024 -14.209503 -7.522348 5.700478 -19.211272 23.733176 0.784796 -8.555307 9.934144 0.000000 0.000000 0.000000 11.056934 -8.276555 -61.915878 39.694975 -47.888097 18.212640 8.518192 -13.608157 -33.276855 0.000000 0.000000 0.000000 -7.125000 0.000000 0.000000 -28.259569 61.291865 11.735603 0.000000 0.000000 0.000000 13.260672 -48.674895 69.927005 -47.662212 -52.007768 -24.319374 -13.606862 -10.547488 -17.780489 0.000000 0.000000 0.000000 7.125000 0.000000 0.000000 9.459729 11.906618 7.408629
